# xmcd
#
# Track frame offsets: 
#        183
#        31635
#        71465
#        108440
#        131993
#        172708
#        196290
#        207015
#        250005
#        288228
#
# Disc length: 4218 seconds
#
# Revision: 1
# Processed by: cddbd v1.5.2PL0 Copyright (c) Steve Scherf et al.
# Submitted via: ExactAudioCopy v0.95b4
#
DISCID=8110780a
DTITLE=Dave Stryker - Strike Zone (with Steve Slagle)
DYEAR=1990
DGENRE=Jazz
TTITLE0=Strike Zone
TTITLE1=Who Can I Turn To
TTITLE2=I Wish I Knew
TTITLE3=Twenty One
TTITLE4=Undercurrent
TTITLE5=Evidence
TTITLE6=Some Other Time
TTITLE7=Going Home
TTITLE8=Muddy Waters
TTITLE9=My Shining Hour
EXTD=YEAR: 1991
EXTT0=
EXTT1=
EXTT2=
EXTT3=
EXTT4=
EXTT5=
EXTT6=
EXTT7=
EXTT8=
EXTT9=
PLAYORDER=
